# xmcd CD database file
#
# Track frame offsets:
#	150
#	15390
#	30912
#	43717
#	61740
#	76872
#	95740
#	112667
#	124835
#	138437
#	155665
#	169182
#	179059
#	200800
#	210225
#	222592
#	234307
#	245775
#
# Disc length: 3504 seconds
#
# Revision: 0
# Processed by: cddbd v1.4PL0 Copyright (c) Steve Scherf et al.
# Submitted via: CDex 1.40Beta9
#
DISCID=f60dae12
DTITLE=Various Artist - I'M MOVIN' ON
DYEAR=1900
DGENRE=Country
TTITLE0=YOU BETTER THINK TWICE
TTITLE1=AM I THE ONLY ONE (Who's Ever Felt This Way)
TTITLE2=WHAT'CHA GONNA DO
TTITLE3=THE SOUTH'S GONNA DO IT
TTITLE4=TRUCK STOP GIRL
TTITLE5=THIS TIME DARLIN'
TTITLE6=I'M MOVIN' ON
TTITLE7=PAPERBACK WRITER
TTITLE8=THE HOLDUP
TTITLE9=SHORT TRIP HOME
TTITLE10=HELLO MARY LOU
TTITLE11=MY BABY WORSHIPS ME
TTITLE12=RAYNE, LOUISIANA
TTITLE13=RIGHT BEFORE MY EYES
TTITLE14=BLACK ROSE
TTITLE15=FERGIE'S PRAYER
TTITLE16=LADIES LOVE OUTLAWS
TTITLE17=BARTENDER'S BLUES
EXTD=ID3G: 2
EXTT0=
EXTT1=
EXTT2=
EXTT3=
EXTT4=
EXTT5=
EXTT6=
EXTT7=
EXTT8=
EXTT9=
EXTT10=
EXTT11=
EXTT12=
EXTT13=
EXTT14=
EXTT15=
EXTT16=
EXTT17=
PLAYORDER=
